<svg xmlns="http://www.w3.org/2000/svg" viewBox="0 0 848.094 288.222">
  <g id="keyboard" transform="translate(2 538)">
    <path id="Tracé_1" data-name="Tracé 1" d="M5.366-534.813a11.545,11.545,0,0,0-3.627,2.968C.42-530.065.354-529.01.156-508.237c-.2,20.509-.132,21.894,1.121,24.663a6.878,6.878,0,0,0,4.155,4.286c2.638,1.187,4.418,1.319,23.279,1.319,11.474,0,21.5-.264,22.817-.659a11.689,11.689,0,0,0,4.286-2.7l1.912-1.978.2-23.081c.2-22.355.132-23.213-1.187-25.323-2.572-4.155-3.363-4.286-27.5-4.286C9.982-536,7.344-535.868,5.366-534.813Z" transform="translate(-0.024)" fill="none" stroke="#3989bf" stroke-width="4"/>
    <path id="Tracé_2" data-name="Tracé 2" d="M118.488-534.813a11.545,11.545,0,0,0-3.627,2.968c-1.319,1.846-1.385,2.638-1.385,24.861,0,31.456-2.44,29.016,28.554,29.016,23.015,0,23.938-.132,27.169-3.627l1.649-1.781v-47.216l-1.649-1.781c-3.231-3.5-4.155-3.627-27.169-3.627C123.039-536,120.467-535.868,118.488-534.813Z" transform="translate(-38.629)" fill="none" stroke="#3989bf" stroke-width="4"/>
    <path id="Tracé_3" data-name="Tracé 3" d="M233.5-535.311c-3.231.857-5.473,2.572-6.529,5.078-.791,1.912-.923,6.265-.791,24.663l.2,22.421,2.506,2.44,2.44,2.506,22.949.2c21.234.132,23.015.066,25.125-1.055,4.55-2.44,4.682-3.1,4.682-27.829,0-30.994,2.242-28.62-27.7-28.818C244.971-535.773,234.618-535.575,233.5-535.311Z" transform="translate(-77.01 -0.096)" fill="none" stroke="#3989bf" stroke-width="4"/>
    <path id="Tracé_4" data-name="Tracé 4" d="M343.484-534.011a10.44,10.44,0,0,0-3.1,3.231c-1.319,2.11-1.385,3.033-1.385,24.531,0,21.036.066,22.487,1.319,24.466,2.44,4.089,2.836,4.155,27.763,4.155,21.432,0,22.619-.066,24.663-1.319,4.155-2.572,4.286-3.429,4.286-27.367s-.132-24.8-4.286-27.367c-2.044-1.253-3.231-1.319-24.8-1.319C349.485-534.934,344.935-534.8,343.484-534.011Z" transform="translate(-115.447 -0.341)" fill="none" stroke="#3989bf" stroke-width="4"/>
    <path id="Tracé_5" data-name="Tracé 5" d="M456.79-533.945a10.221,10.221,0,0,0-3.5,3.231c-1.253,2.044-1.319,3.231-1.319,24.466,0,31.39-2.44,28.884,28.027,29.148,21.564.2,21.762.132,24.663-1.319,5.276-2.7,5.341-2.968,5.341-27.565,0-23.938-.132-24.531-4.55-27.5-2.242-1.517-2.44-1.517-24.4-1.517C462.131-535,458.57-534.8,456.79-533.945Z" transform="translate(-153.905 -0.341)" fill="none" stroke="#3989bf" stroke-width="4"/>
    <path id="Tracé_6" data-name="Tracé 6" d="M569.946-533.7C565-531.264,565-531.4,565-506.007c0,25.323,0,25.323,4.748,27.763,2.242,1.187,4.089,1.253,24,1.253,23.806,0,24.6-.132,27.5-4.22,1.451-2.044,1.451-2.308,1.451-24.8,0-31.456,2.374-29.016-28.818-29.016C573.9-535.023,572.386-534.957,569.946-533.7Z" transform="translate(-192.412 -0.318)" fill="none" stroke="#3989bf" stroke-width="4"/>
    <path id="Tracé_7" data-name="Tracé 7" d="M683.9-534.179c-3.034.857-6,4.55-6.529,7.979-.2,1.583-.33,11.738-.2,22.619.2,21.96.4,22.817,4.682,25.389,1.978,1.253,3.429,1.319,24.4,1.319,24.531,0,24.663,0,27.631-4.089l1.517-2.176v-22.553c0-21.7-.066-22.619-1.385-24.334a17.979,17.979,0,0,0-3.165-3.165c-1.715-1.319-2.7-1.385-23.344-1.517C695.571-534.772,685.02-534.575,683.9-534.179Z" transform="translate(-230.594 -0.436)" fill="none" stroke="#3989bf" stroke-width="4"/>
    <path id="Tracé_8" data-name="Tracé 8" d="M795.614-533.315c-2.044.791-4.22,3.5-4.946,6-.857,2.968-.857,41.084,0,44.249a11.1,11.1,0,0,0,3.033,4.418l2.308,2.044h22.883c21.564,0,23.015-.066,24.993-1.319,4.089-2.44,4.154-2.9,4.154-27.367s-.066-24.927-4.154-27.367c-1.978-1.253-3.429-1.319-24.531-1.253C807.022-533.909,796.339-533.645,795.614-533.315Z" transform="translate(-269.045 -0.706)" fill="none" stroke="#3989bf" stroke-width="4"/>
    <path id="Tracé_9" data-name="Tracé 9" d="M907.537-532.483c-4.418,2.968-4.55,3.627-4.55,27.367,0,30.73-1.846,28.752,26.378,29.016,23.872.264,25.719.066,28.95-2.836l2.374-2.176.2-23.344c.132-21.894.066-23.41-1.121-25.323-2.506-4.089-3.5-4.22-27.961-4.22C909.977-534,909.78-534,907.537-532.483Z" transform="translate(-307.506 -0.681)" fill="none" stroke="#3989bf" stroke-width="4"/>
    <path id="Tracé_10" data-name="Tracé 10" d="M1022.155-531.681c-4.089,2.44-4.155,2.9-4.155,27.5,0,20.97.066,22.421,1.319,24.4,2.7,4.418-3.1,4.155,85.135,4.155,78.936,0,79.925,0,82.035-1.319,4.155-2.572,4.286-3.429,4.286-27.367s-.132-24.8-4.286-27.367c-2.11-1.319-3.1-1.319-82.167-1.319C1026.111-533,1024.2-532.934,1022.155-531.681Z" transform="translate(-346.682 -1.022)" fill="none" stroke="#3989bf" stroke-width="4"/>
    <path id="Tracé_11" data-name="Tracé 11" d="M5.276-421.813a10.758,10.758,0,0,0-3.759,3.363C0-416.208,0-416.01,0-393.984s0,22.223,1.517,24.466c3.165,4.748.528,4.55,54.207,4.55,45.9,0,48.272-.066,50.909-1.253,5.078-2.374,5.144-2.572,5.144-27.763,0-20.9-.066-22.223-1.319-24.334a11.275,11.275,0,0,0-3.627-3.429c-2.176-1.187-4.748-1.253-50.778-1.253C11.211-423,7.386-422.934,5.276-421.813Z" transform="translate(0 -38.482)" fill="none" stroke="#3989bf" stroke-width="4"/>
    <path id="Tracé_12" data-name="Tracé 12" d="M1104.276-421.814a9.483,9.483,0,0,0-3.759,4.089c-1.451,2.836-1.517,3.429-1.517,23.74,0,18.992.132,21.036,1.253,23.542a7.74,7.74,0,0,0,3.957,4.089c2.638,1.385,3.429,1.385,54.6,1.385,57.965,0,54.866.264,58.031-4.55,1.517-2.242,1.517-2.44,1.517-24.466s0-22.223-1.517-24.466c-3.165-4.814-.066-4.55-58.163-4.55C1109.485-423,1106.452-422.935,1104.276-421.814Z" transform="translate(-374.267 -38.481)" fill="none" stroke="#3989bf" stroke-width="4"/>
    <path id="Tracé_13" data-name="Tracé 13" d="M199.55-420.483c-4.418,2.968-4.55,3.627-4.55,27.1,0,19.652.066,21.234,1.319,23.806,2.44,5.012,2.176,4.946,28.224,4.946,22.355,0,23.081-.066,24.8-1.385,3.627-2.836,3.693-3.3,3.693-27.3,0-24.466-.066-24.927-4.155-27.367-1.978-1.253-3.429-1.319-24.6-1.319C201.99-422,201.792-422,199.55-420.483Z" transform="translate(-66.408 -38.823)" fill="none" stroke="#3989bf" stroke-width="4"/>
    <path id="Tracé_14" data-name="Tracé 14" d="M313.381-420.813a11.546,11.546,0,0,0-3.627,2.967c-1.319,1.781-1.385,2.836-1.583,24.07-.2,24.531-.066,25.059,4.023,28.092,1.781,1.319,2.836,1.385,23.41,1.583,13.717.132,22.421,0,23.872-.462a11.486,11.486,0,0,0,4.286-2.7l1.978-2.044v-47.282l-1.649-1.78C360.73-422,360.6-422,337.253-422,317.932-422,315.36-421.868,313.381-420.813Z" transform="translate(-104.93 -38.823)" fill="none" stroke="#3989bf" stroke-width="4"/>
    <path id="Tracé_15" data-name="Tracé 15" d="M427.331-421.245a10.629,10.629,0,0,0-3.165,1.781c-3.1,2.77-3.165,3.5-3.165,26.708,0,20.773.066,22.091,1.319,24.136a12.131,12.131,0,0,0,3.429,3.429c2.044,1.253,3.363,1.319,24.136,1.319,23.674,0,23.806,0,27.169-3.627l1.649-1.781.2-22.817c.2-32.049,2.638-29.411-27.895-29.609C439.069-421.772,428.386-421.575,427.331-421.245Z" transform="translate(-143.372 -38.919)" fill="none" stroke="#3989bf" stroke-width="4"/>
    <path id="Tracé_16" data-name="Tracé 16" d="M538.155-419.681c-4.089,2.44-4.155,2.9-4.155,27.169,0,24.6.132,25.257,4.682,27.7,2.11,1.121,3.891,1.187,25.125,1.055l22.949-.2,2.44-2.506,2.506-2.44.2-22.421c.2-24.927.066-25.916-4.089-28.422-1.912-1.187-3.693-1.253-24.8-1.253C541.584-421,540.133-420.934,538.155-419.681Z" transform="translate(-181.855 -39.163)" fill="none" stroke="#3989bf" stroke-width="4"/>
    <path id="Tracé_17" data-name="Tracé 17" d="M651.154-419.7c-4.089,2.572-4.154,2.968-4.154,27.565,0,20.97.066,22.421,1.319,24.4,2.44,4.089,2.836,4.155,27.7,4.155,25.323,0,25.323,0,27.763-4.748,1.187-2.242,1.253-4.089,1.253-23.608,0-22.883-.132-23.806-3.627-27.037l-1.781-1.649-23.147-.2C654.386-420.957,653.133-420.891,651.154-419.7Z" transform="translate(-220.337 -39.207)" fill="none" stroke="#3989bf" stroke-width="4"/>
    <path id="Tracé_18" data-name="Tracé 18" d="M764.682-419.9C760-417.592,760-417.46,760-391.874v22.817l1.781,2.176c3.231,3.759,4.023,3.891,27.037,3.891,19.388,0,21.168-.132,23.806-1.319a6.878,6.878,0,0,0,4.155-4.286c1.253-2.836,1.319-4.155,1.121-24.663-.264-30.071,2.176-27.763-29.214-27.763C769.76-421.021,766.66-420.823,764.682-419.9Z" transform="translate(-258.819 -39.142)" fill="none" stroke="#3989bf" stroke-width="4"/>
    <path id="Tracé_19" data-name="Tracé 19" d="M877.756-419.681c-5.276,2.572-5.276,2.7-5.276,27.7,0,31.324-2.308,29.016,29.016,29.016,24.927,0,25.125-.066,27.895-5.342,1.451-2.9,1.517-3.1,1.319-24.334-.2-24.4-.264-24.8-5.342-27.1-2.506-1.121-4.55-1.253-23.872-1.253C881.713-421,880.2-420.934,877.756-419.681Z" transform="translate(-297.112 -39.163)" fill="none" stroke="#3989bf" stroke-width="4"/>
    <path id="Tracé_20" data-name="Tracé 20" d="M992.759-420.285a10.088,10.088,0,0,0-7.122,6.594c-.462,1.451-.594,10.024-.462,23.41.2,23.41.2,23.344,4.682,26.048,1.978,1.253,3.5,1.319,24.4,1.319,24.6,0,25.059-.066,27.5-4.155,1.253-1.978,1.319-3.429,1.319-25.059V-415.01l-2.176-2.374a8.605,8.605,0,0,0-5.078-2.968C1032.26-421.011,996.32-421.011,992.759-420.285Z" transform="translate(-335.487 -39.219)" fill="none" stroke="#3989bf" stroke-width="4"/>
    <path id="Tracé_21" data-name="Tracé 21" d="M6.767-309.411c-2.638.528-5.935,4.418-6.4,7.584-.2,1.583-.33,12.068-.2,23.41C.37-258.832.436-257.776,1.755-256a11.546,11.546,0,0,0,3.627,2.968c2.11,1.121,6.66,1.187,67.066,1.187,71.22,0,67.725.2,70.759-4.023l1.583-2.242v-22.751c0-24.993.066-24.6-4.155-27.5-1.715-1.121-5.078-1.187-67.066-1.253C37.629-309.675,7.624-309.543,6.767-309.411Z" transform="translate(-0.041 -77.092)" fill="none" stroke="#3989bf" stroke-width="4"/>
    <path id="Tracé_22" data-name="Tracé 22" d="M250.55-306.483c-4.418,2.968-4.55,3.561-4.55,27.5,0,24,.132,24.663,4.682,27.367,2.11,1.253,3.429,1.319,24.663,1.319,24.927,0,24.6.066,27.367-4.484,1.253-1.978,1.319-3.5,1.319-24.466,0-21.234-.066-22.421-1.319-24.466-2.572-4.155-3.363-4.286-27.895-4.286C252.99-308,252.792-308,250.55-306.483Z" transform="translate(-83.776 -77.646)" fill="none" stroke="#3989bf" stroke-width="4"/>
    <path id="Tracé_23" data-name="Tracé 23" d="M366.188-307.377c-3.3,1.055-4.682,2.176-5.935,4.88-1.121,2.506-1.253,4.616-1.253,23.872,0,23.542.132,24.2,4.55,27.169,2.242,1.517,2.44,1.517,24.268,1.517,24.466,0,25.455-.132,27.961-4.22,1.187-1.912,1.253-3.693,1.253-24.927v-22.883l-2.044-2.308a11.1,11.1,0,0,0-4.418-3.033C407.733-308.1,368.76-308.1,366.188-307.377Z" transform="translate(-122.258 -77.676)" fill="none" stroke="#3989bf" stroke-width="4"/>
    <path id="Tracé_24" data-name="Tracé 24" d="M477.605-307.1a13.065,13.065,0,0,0-3.825,2.968L472-301.956v45.9l1.781,2.176c3.231,3.759,4.023,3.891,27.235,3.891,23.41,0,24.334-.132,27.1-4.023l1.583-2.242v-22.883c0-31.324,2.44-28.884-28.686-28.884C484.661-307.957,479.122-307.759,477.605-307.1Z" transform="translate(-160.741 -77.623)" fill="none" stroke="#3989bf" stroke-width="4"/>
    <path id="Tracé_25" data-name="Tracé 25" d="M591.2-307.179a10.869,10.869,0,0,0-4.155,2.9L585-301.9v22.883c0,21.762.066,23.015,1.319,25.059,2.44,3.957,3.5,4.089,27.829,4.089,30.928,0,28.488,2.374,28.752-27.895.264-31.917,2.308-29.741-28.224-29.939C602.871-307.772,592.32-307.575,591.2-307.179Z" transform="translate(-199.223 -77.742)" fill="none" stroke="#3989bf" stroke-width="4"/>
    <path id="Tracé_26" data-name="Tracé 26" d="M700.74-304.99a9.753,9.753,0,0,0-3.034,4.616c-.462,1.715-.659,10.221-.527,23.542.2,23.213.2,23.147,4.682,25.85,1.978,1.253,3.5,1.319,24.531,1.319,31.258,0,28.95,2.044,29.214-25.718.264-23.806.066-25.718-2.836-28.95l-2.176-2.374-23.74-.2-23.74-.2Z" transform="translate(-237.412 -77.952)" fill="none" stroke="#3989bf" stroke-width="4"/>
    <path id="Tracé_27" data-name="Tracé 27" d="M814.536-305.483c-4.418,2.968-4.55,3.627-4.55,27.1,0,31.06-1.978,29.016,27.829,29.279,12.991.132,21.894-.066,23.41-.462a12.028,12.028,0,0,0,4.484-2.7l1.978-2.044.2-23.015c.2-25.521.132-25.85-4.023-28.356-1.978-1.253-3.429-1.319-24.6-1.319C816.976-307,816.778-307,814.536-305.483Z" transform="translate(-275.833 -77.986)" fill="none" stroke="#3989bf" stroke-width="4"/>
    <path id="Tracé_28" data-name="Tracé 28" d="M928.489-305.813a11.544,11.544,0,0,0-3.627,2.967c-1.319,1.846-1.385,2.638-1.385,24.861,0,31.456-2.44,29.016,28.554,29.016,23.015,0,23.938-.132,27.169-3.627l1.649-1.781.2-23.279.2-23.279-1.781-2.044C976.1-307,976.1-307,952.36-307,933.039-307,930.467-306.868,928.489-305.813Z" transform="translate(-314.476 -77.986)" fill="none" stroke="#3989bf" stroke-width="4"/>
    <path id="Tracé_29" data-name="Tracé 29" d="M1041.935-306.445a9.4,9.4,0,0,0-2.506,1.781c-3.363,3.033-3.429,3.429-3.429,26.576,0,24.2.132,24.927,4.616,27.565,2.308,1.319,3.1,1.319,75.836,1.319s73.528,0,75.837-1.319c4.484-2.638,4.616-3.363,4.616-27.565,0-23.344,0-23.476-3.627-26.84l-1.781-1.649-74.254-.132C1076.358-306.775,1042.463-306.643,1041.935-306.445Z" transform="translate(-352.812 -78.08)" fill="none" stroke="#3989bf" stroke-width="4"/>
    <path id="Tracé_30" data-name="Tracé 30" d="M175.861-192.7c-4.484,2.77-4.484,2.7-4.682,25.85-.132,13.519.066,21.828.528,23.542a9.97,9.97,0,0,0,2.968,4.682l2.374,2.044h30.664c34.423,0,33.434.132,35.94-4.748,1.187-2.242,1.253-4.089,1.253-23.938,0-23.213,0-23.344-3.627-26.708l-1.781-1.649-30.73-.2C179.159-193.957,177.906-193.891,175.861-192.7Z" transform="translate(-58.282 -116.512)" fill="none" stroke="#3989bf" stroke-width="4"/>
    <path id="Tracé_31" data-name="Tracé 31" d="M311.861-192.628c-4.484,2.7-4.484,2.638-4.682,25.85-.132,13.321.066,21.828.528,23.542a10.113,10.113,0,0,0,2.968,4.616l2.374,2.044H526.116c212.474,0,213.068,0,215.178-1.319,4.154-2.572,4.286-3.429,4.286-26.971,0-22.949-.132-23.872-3.627-27.1l-1.781-1.649-213.068-.132C316.741-193.947,313.972-193.947,311.861-192.628Z" transform="translate(-104.597 -116.522)" fill="none" stroke="#3989bf" stroke-width="4"/>
    <path id="Tracé_32" data-name="Tracé 32" d="M1000.861-192.7c-4.484,2.77-4.484,2.7-4.682,25.916-.132,13.321.066,21.828.527,23.542a10.114,10.114,0,0,0,2.968,4.616l2.374,2.044h30.664c34.621,0,33.368.2,35.874-4.946,1.253-2.572,1.319-4.155,1.319-23.608,0-22.685-.132-23.674-3.627-26.84l-1.78-1.649-30.73-.2C1004.159-193.957,1002.906-193.891,1000.861-192.7Z" transform="translate(-339.237 -116.512)" fill="none" stroke="#3989bf" stroke-width="4"/>
    <path id="Tracé_33" data-name="Tracé 33" d="M1137.155-192.681c-4.089,2.44-4.155,2.9-4.155,27.5,0,20.97.066,22.421,1.319,24.4,2.572,4.286.857,4.155,46.953,4.155,39.7,0,41.875-.066,43.787-1.253,4.089-2.44,4.22-3.561,4.22-27.565,0-24.2-.132-24.927-4.682-27.367-2.11-1.121-4.814-1.187-43.787-1.187C1140.781-194,1139.2-193.934,1137.155-192.681Z" transform="translate(-385.845 -116.469)" fill="none" stroke="#3989bf" stroke-width="4"/>
    <path id="Tracé_34" data-name="Tracé 34" d="M5.891-190.219C2.132-187.054,2-186.2,2-163.314s.132,23.74,3.891,26.905l2.176,1.781H50.008c40.49,0,42.073-.066,44.117-1.319,4.089-2.44,4.155-2.9,4.155-27.367s-.066-24.927-4.155-27.367C92.081-191.934,90.5-192,50.008-192H8.067Z" transform="translate(-0.681 -117.15)" fill="none" stroke="#3989bf" stroke-width="4"/>
  </g>
</svg>
